<svg width="34" height="34" viewBox="0 0 34 34" fill="none" xmlns="http://www.w3.org/2000/svg">
<circle cx="17" cy="17" r="17" fill="#E4E7EC"/>
<path d="M12.248 22V14.752C12.248 14.5387 12.248 14.32 12.248 14.096C12.2587 13.8613 12.2693 13.616 12.28 13.36C11.9173 13.712 11.5013 14.016 11.032 14.272C10.5733 14.5173 10.0987 14.6933 9.608 14.8L9.288 13.312C9.512 13.28 9.77333 13.2053 10.072 13.088C10.3707 12.9707 10.68 12.8213 11 12.64C11.32 12.4587 11.6133 12.2667 11.88 12.064C12.1467 11.8507 12.3547 11.6427 12.504 11.44H13.944V22H12.248ZM20.4615 22.16C19.1922 22.16 18.1948 21.7013 17.4695 20.784C16.7548 19.856 16.3975 18.5013 16.3975 16.72C16.3975 14.9387 16.7548 13.5893 17.4695 12.672C18.1948 11.744 19.1922 11.28 20.4615 11.28C21.7415 11.28 22.7388 11.744 23.4535 12.672C24.1788 13.5893 24.5415 14.9387 24.5415 16.72C24.5415 18.5013 24.1788 19.856 23.4535 20.784C22.7388 21.7013 21.7415 22.16 20.4615 22.16ZM20.4615 20.704C20.9735 20.704 21.4002 20.56 21.7415 20.272C22.0935 19.9733 22.3548 19.5307 22.5255 18.944C22.7068 18.3467 22.7975 17.6053 22.7975 16.72C22.7975 15.8347 22.7068 15.0987 22.5255 14.512C22.3548 13.9147 22.0935 13.472 21.7415 13.184C21.4002 12.8853 20.9735 12.736 20.4615 12.736C19.9495 12.736 19.5175 12.8853 19.1655 13.184C18.8242 13.472 18.5682 13.9147 18.3975 14.512C18.2268 15.0987 18.1415 15.8347 18.1415 16.72C18.1415 17.6053 18.2268 18.3467 18.3975 18.944C18.5682 19.5307 18.8242 19.9733 19.1655 20.272C19.5175 20.56 19.9495 20.704 20.4615 20.704Z" fill="#006D77"/>
</svg>
