<svg width="34" height="34" viewBox="0 0 34 34" fill="none" xmlns="http://www.w3.org/2000/svg">
<circle cx="17" cy="17" r="17" fill="#E4E7EC"/>
<path d="M12.3339 22V14.752C12.3339 14.5387 12.3339 14.32 12.3339 14.096C12.3446 13.8613 12.3553 13.616 12.3659 13.36C12.0033 13.712 11.5873 14.016 11.1179 14.272C10.6593 14.5173 10.1846 14.6933 9.69394 14.8L9.37394 13.312C9.59794 13.28 9.85927 13.2053 10.1579 13.088C10.4566 12.9707 10.7659 12.8213 11.0859 12.64C11.4059 12.4587 11.6993 12.2667 11.9659 12.064C12.2326 11.8507 12.4406 11.6427 12.5899 11.44H14.0299V22H12.3339ZM16.6434 22V20.752C17.6568 20.0267 18.5048 19.3867 19.1874 18.832C19.8808 18.2773 20.4354 17.7653 20.8514 17.296C21.2674 16.8267 21.5661 16.384 21.7474 15.968C21.9394 15.5413 22.0354 15.1093 22.0354 14.672C22.0354 14.1067 21.8594 13.648 21.5074 13.296C21.1554 12.944 20.6648 12.768 20.0354 12.768C19.3741 12.768 18.8461 12.992 18.4514 13.44C18.0674 13.8773 17.8488 14.48 17.7954 15.248L16.3074 14.56C16.3821 13.888 16.5794 13.3067 16.8994 12.816C17.2194 12.3253 17.6514 11.9467 18.1954 11.68C18.7501 11.4133 19.3901 11.28 20.1154 11.28C20.7128 11.28 21.2354 11.3653 21.6834 11.536C22.1421 11.7067 22.5261 11.9467 22.8354 12.256C23.1448 12.5547 23.3794 12.9067 23.5394 13.312C23.7101 13.7173 23.7954 14.1493 23.7954 14.608C23.7954 15.28 23.6301 15.9307 23.2994 16.56C22.9688 17.1787 22.4461 17.8133 21.7314 18.464C21.0168 19.1147 20.0781 19.8133 18.9154 20.56V20.592C19.0434 20.5707 19.2194 20.56 19.4434 20.56C19.6674 20.5493 19.8914 20.544 20.1154 20.544C20.3394 20.5333 20.5208 20.528 20.6594 20.528H23.9874V22H16.6434Z" fill="#006D77"/>
</svg>

