<svg width="34" height="34" viewBox="0 0 34 34" fill="none" xmlns="http://www.w3.org/2000/svg">
<circle cx="17" cy="17" r="17" fill="#E4E7EC"/>
<path d="M12.5527 23V15.752C12.5527 15.5387 12.5527 15.32 12.5527 15.096C12.5634 14.8613 12.574 14.616 12.5847 14.36C12.222 14.712 11.806 15.016 11.3367 15.272C10.878 15.5173 10.4034 15.6933 9.91269 15.8L9.59269 14.312C9.81669 14.28 10.078 14.2053 10.3767 14.088C10.6754 13.9707 10.9847 13.8213 11.3047 13.64C11.6247 13.4587 11.918 13.2667 12.1847 13.064C12.4514 12.8507 12.6594 12.6427 12.8087 12.44H14.2487V23H12.5527ZM21.5982 23V20.36H16.4462V19.192C16.4675 19.1387 16.4995 19.0747 16.5422 19C16.5955 18.9253 16.6542 18.84 16.7182 18.744L21.1182 12.44H23.2142V19.032H25.0062V20.36H23.2142V23H21.5982ZM18.0462 19.032H21.5982V15.304C21.5982 15.048 21.6035 14.7867 21.6142 14.52C21.6355 14.2427 21.6515 13.9707 21.6622 13.704H21.6302C21.5129 13.96 21.3582 14.2427 21.1662 14.552C20.9849 14.8507 20.8142 15.112 20.6542 15.336L18.1582 18.888C18.1369 18.9093 18.1155 18.9307 18.0942 18.952C18.0835 18.9733 18.0675 19 18.0462 19.032Z" fill="#006D77"/>
</svg>
