<svg width="34" height="34" viewBox="0 0 34 34" fill="none" xmlns="http://www.w3.org/2000/svg">
<circle cx="17" cy="17" r="17" fill="#E4E7EC"/>
<path d="M17.0545 11.296C17.7692 11.296 18.3878 11.4133 18.9105 11.648C19.4438 11.872 19.8545 12.192 20.1425 12.608C20.4305 13.024 20.5745 13.5253 20.5745 14.112C20.5745 14.656 20.4412 15.136 20.1745 15.552C19.9185 15.9573 19.5398 16.2667 19.0385 16.48V16.496C19.6465 16.72 20.1265 17.056 20.4785 17.504C20.8412 17.9413 21.0225 18.4853 21.0225 19.136C21.0225 19.7653 20.8572 20.304 20.5265 20.752C20.2065 21.2 19.7478 21.5467 19.1505 21.792C18.5638 22.0373 17.8652 22.16 17.0545 22.16C16.2438 22.16 15.5398 22.0373 14.9425 21.792C14.3558 21.5467 13.8972 21.2 13.5665 20.752C13.2358 20.304 13.0705 19.7653 13.0705 19.136C13.0705 18.496 13.2465 17.952 13.5985 17.504C13.9505 17.056 14.4412 16.72 15.0705 16.496V16.48C14.5905 16.2773 14.2118 15.9733 13.9345 15.568C13.6572 15.152 13.5185 14.6667 13.5185 14.112C13.5185 13.5253 13.6625 13.024 13.9505 12.608C14.2385 12.192 14.6492 11.872 15.1825 11.648C15.7158 11.4133 16.3398 11.296 17.0545 11.296ZM17.0545 12.736C16.4892 12.736 16.0358 12.8747 15.6945 13.152C15.3638 13.4293 15.1985 13.808 15.1985 14.288C15.1985 14.768 15.3692 15.1467 15.7105 15.424C16.0518 15.6907 16.4998 15.824 17.0545 15.824C17.6092 15.824 18.0518 15.6907 18.3825 15.424C18.7238 15.1467 18.8945 14.768 18.8945 14.288C18.8945 13.808 18.7292 13.4293 18.3985 13.152C18.0678 12.8747 17.6198 12.736 17.0545 12.736ZM17.0545 20.72C17.5238 20.72 17.9238 20.6507 18.2545 20.512C18.5852 20.3733 18.8412 20.1707 19.0225 19.904C19.2038 19.6373 19.2945 19.328 19.2945 18.976C19.2945 18.6027 19.1985 18.288 19.0065 18.032C18.8252 17.7653 18.5692 17.5627 18.2385 17.424C17.9078 17.2853 17.5132 17.216 17.0545 17.216C16.6065 17.216 16.2118 17.2853 15.8705 17.424C15.5292 17.5627 15.2625 17.7653 15.0705 18.032C14.8892 18.288 14.7985 18.6027 14.7985 18.976C14.7985 19.328 14.8892 19.6373 15.0705 19.904C15.2518 20.1707 15.5132 20.3733 15.8545 20.512C16.1958 20.6507 16.5958 20.72 17.0545 20.72Z" fill="#006D77"/>
</svg>
